<?xml version="1.0" encoding="UTF-8"?>
<svg width="175px" height="26px" viewBox="0 0 175 26" version="1.1" xmlns="http://www.w3.org/2000/svg" xmlns:xlink="http://www.w3.org/1999/xlink">
    <!-- Generator: sketchtool 50.2 (55047) - http://www.bohemiancoding.com/sketch -->
    <title>CA57DA26-2D23-4D22-83B3-79635883978E@2x</title>
    <desc>Created with sketchtool.</desc>
    <defs></defs>
    <g id="homepage" stroke="none" stroke-width="1" fill="none" fill-rule="evenodd">
        <g id="homepage-1" transform="translate(-80.000000, -42.000000)" fill="#FFFFFF">
            <g id="top-bar">
                <g id="logo">
                    <path d="M100.108,43.03 C101.128005,43.03 101.977997,42.9960003 102.658,42.928 L102.658,43.608 C101.524661,43.8800014 100.629337,44.8659915 99.972,46.566 L91.982,67.17 L91.438,67.17 L83.142,45.784 C82.5979973,44.3786596 81.8160051,43.6533336 80.796,43.608 L80.796,42.928 C81.7026712,42.9960003 82.9153257,43.03 84.434,43.03 C86.3833431,43.03 87.8339952,42.9960003 88.786,42.928 L88.786,43.608 C87.9246624,43.6533336 87.3070019,43.7609992 86.933,43.931 C86.5589981,44.1010008 86.372,44.4126644 86.372,44.866 C86.372,45.2513353 86.5079986,45.7839966 86.78,46.464 L92.934,62.818 L98.476,48.436 C98.9293356,47.2119939 99.156,46.2826698 99.156,45.648 C99.156,44.9453298 98.9123358,44.4353349 98.425,44.118 C97.9376642,43.8006651 97.1953383,43.6306668 96.198,43.608 L96.198,42.928 C97.4900065,42.9960003 98.7933268,43.03 100.108,43.03 Z M114.784666,43.608 C113.968662,43.6533336 113.373668,43.7439993 112.999666,43.88 C112.625664,44.0160007 112.370667,44.2766647 112.234666,44.662 C112.098665,45.0473353 112.030666,45.6706624 112.030666,46.532 L112.030666,63.396 C112.030666,64.2573376 112.098665,64.8806647 112.234666,65.266 C112.370667,65.6513353 112.625664,65.9119993 112.999666,66.048 C113.373668,66.1840007 113.968662,66.2746664 114.784666,66.32 L114.784666,67 C113.741994,66.9319997 112.302675,66.898 110.466666,66.898 C108.517323,66.898 107.066671,66.9319997 106.114666,67 L106.114666,66.32 C106.93067,66.2746664 107.525664,66.1840007 107.899666,66.048 C108.273668,65.9119993 108.528665,65.6513353 108.664666,65.266 C108.800667,64.8806647 108.868666,64.2573376 108.868666,63.396 L108.868666,46.532 C108.868666,45.6706624 108.800667,45.0473353 108.664666,44.662 C108.528665,44.2766647 108.273668,44.0160007 107.899666,43.88 C107.525664,43.7439993 106.93067,43.6533336 106.114666,43.608 L106.114666,42.928 C107.066671,42.9960003 108.517323,43.03 110.466666,43.03 C112.280008,43.03 113.719327,42.9960003 114.784666,42.928 L114.784666,43.608 Z M130.821332,42.452 C132.181339,42.452 133.337327,42.6446647 134.289332,43.03 C135.241337,43.4153353 136.170661,43.9593298 137.077332,44.662 C137.326667,44.866001 137.541998,44.968 137.723332,44.968 C138.176668,44.968 138.471331,44.2880068 138.607332,42.928 L139.389332,42.928 C139.298665,44.4013407 139.253332,47.0079813 139.253332,50.748 L138.471332,50.748 C138.221997,49.2746593 137.995333,48.2150032 137.791332,47.569 C137.587331,46.9229968 137.247334,46.3053363 136.771332,45.716 C136.091329,44.8319956 135.224337,44.1690022 134.170332,43.727 C133.116327,43.2849978 131.977338,43.064 130.753332,43.064 C129.279991,43.064 127.993671,43.5513285 126.894332,44.526 C125.794993,45.5006715 124.939335,46.888991 124.327332,48.691 C123.715329,50.493009 123.409332,52.6066545 123.409332,55.032 C123.409332,57.502679 123.737995,59.6219912 124.395332,61.39 C125.052669,63.1580088 125.964993,64.5009954 127.132332,65.419 C128.299671,66.3370046 129.619991,66.796 131.093332,66.796 C132.226671,66.796 133.325993,66.5806688 134.391332,66.15 C135.456671,65.7193312 136.295329,65.0733376 136.907332,64.212 C137.360668,63.5773302 137.689331,62.897337 137.893332,62.172 C138.097333,61.446663 138.289998,60.3360075 138.471332,58.84 L139.253332,58.84 C139.253332,62.7386862 139.298665,65.458659 139.389332,67 L138.607332,67 C138.539332,66.274663 138.442999,65.7590015 138.318332,65.453 C138.193665,65.1469985 138.018,64.994 137.791332,64.994 C137.609998,64.994 137.372,65.0846658 137.077332,65.266 C136.057327,65.991337 135.08267,66.5409981 134.153332,66.915 C133.223994,67.2890019 132.102005,67.476 130.787332,67.476 C128.633988,67.476 126.747007,66.9886715 125.126332,66.014 C123.505657,65.0393285 122.24767,63.6283426 121.352332,61.781 C120.456994,59.9336574 120.009332,57.7293461 120.009332,55.168 C120.009332,52.6746542 120.468327,50.4646763 121.386332,48.538 C122.304337,46.6113237 123.58499,45.1153387 125.228332,44.05 C126.871674,42.9846613 128.735988,42.452 130.821332,42.452 Z M163.993998,42.928 C163.835331,44.5373414 163.755998,45.9879935 163.755998,47.28 C163.755998,48.413339 163.789998,49.342663 163.857998,50.068 L163.075998,50.068 C162.894664,48.3226579 162.667999,47.0250043 162.395998,46.175 C162.123997,45.3249957 161.648001,44.7016687 160.967998,44.305 C160.287995,43.9083313 159.245338,43.71 157.839998,43.71 L156.003998,43.71 L156.003998,63.056 C156.003998,64.0080048 156.094664,64.6993312 156.275998,65.13 C156.457332,65.5606688 156.774662,65.8553325 157.227998,66.014 C157.681334,66.1726675 158.417993,66.2746664 159.437998,66.32 L159.437998,67 C158.259325,66.9319997 156.593342,66.898 154.439998,66.898 C152.17332,66.898 150.496003,66.9319997 149.407998,67 L149.407998,66.32 C150.428003,66.2746664 151.164662,66.1726675 151.617998,66.014 C152.071334,65.8553325 152.388664,65.5606688 152.569998,65.13 C152.751332,64.6993312 152.841998,64.0080048 152.841998,63.056 L152.841998,43.71 L151.005998,43.71 C149.600658,43.71 148.558001,43.9083313 147.877998,44.305 C147.197995,44.7016687 146.721999,45.3249957 146.449998,46.175 C146.177997,47.0250043 145.951332,48.3226579 145.769998,50.068 L144.987998,50.068 C145.055998,49.342663 145.089998,48.413339 145.089998,47.28 C145.089998,45.9879935 145.010665,44.5373414 144.851998,42.928 C146.733341,42.9960003 149.929309,43.03 154.439998,43.03 C158.92802,43.03 162.112655,42.9960003 163.993998,42.928 Z M179.860664,42.452 C182.014008,42.452 183.900989,42.9393285 185.521664,43.914 C187.142339,44.8886715 188.400326,46.2996574 189.295664,48.147 C190.191002,49.9943426 190.638664,52.1986539 190.638664,54.76 C190.638664,57.2533458 190.179669,59.4633237 189.261664,61.39 C188.343659,63.3166763 187.063006,64.8126613 185.419664,65.878 C183.776322,66.9433387 181.912008,67.476 179.826664,67.476 C177.67332,67.476 175.786339,66.9886715 174.165664,66.014 C172.544989,65.0393285 171.287002,63.6283426 170.391664,61.781 C169.496326,59.9336574 169.048664,57.7293461 169.048664,55.168 C169.048664,52.6746542 169.507659,50.4646763 170.425664,48.538 C171.343669,46.6113237 172.624322,45.1153387 174.267664,44.05 C175.911006,42.9846613 177.77532,42.452 179.860664,42.452 Z M179.724664,43.064 C178.27399,43.064 176.999003,43.5683283 175.899664,44.577 C174.800325,45.5856717 173.950334,46.9966576 173.349664,48.81 C172.748994,50.6233424 172.448664,52.6973217 172.448664,55.032 C172.448664,57.3893451 172.782994,59.4633244 173.451664,61.254 C174.120334,63.0446756 175.021325,64.4273285 176.154664,65.402 C177.288003,66.3766715 178.557324,66.864 179.962664,66.864 C181.413338,66.864 182.688325,66.3596717 183.787664,65.351 C184.887003,64.3423283 185.736994,62.9313424 186.337664,61.118 C186.938334,59.3046576 187.238664,57.2306783 187.238664,54.896 C187.238664,52.5386549 186.904334,50.4646756 186.235664,48.674 C185.566994,46.8833244 184.666003,45.5006715 183.532664,44.526 C182.399325,43.5513285 181.130004,43.064 179.724664,43.064 Z M216.87533,65.3 C216.353994,66.0706705 215.832666,66.6259983 215.31133,66.966 C214.789994,67.3060017 214.098668,67.476 213.23733,67.476 C212.307992,67.476 211.543,67.2040027 210.94233,66.66 C210.34166,66.1159973 209.893998,65.1640068 209.59933,63.804 L208.85133,60.404 C208.579329,59.2253274 208.324331,58.3186698 208.08633,57.684 C207.848329,57.0493302 207.491332,56.5393353 207.01533,56.154 C206.539328,55.7686647 205.870668,55.576 205.00933,55.576 L201.77933,55.576 L201.77933,63.396 C201.77933,64.2573376 201.847329,64.8806647 201.98333,65.266 C202.119331,65.6513353 202.374328,65.9119993 202.74833,66.048 C203.122332,66.1840007 203.717326,66.2746664 204.53333,66.32 L204.53333,67 C203.490658,66.9319997 202.051339,66.898 200.21533,66.898 C198.265987,66.898 196.815335,66.9319997 195.86333,67 L195.86333,66.32 C196.679334,66.2746664 197.274328,66.1840007 197.64833,66.048 C198.022332,65.9119993 198.277329,65.6513353 198.41333,65.266 C198.549331,64.8806647 198.61733,64.2573376 198.61733,63.396 L198.61733,46.532 C198.61733,45.6706624 198.549331,45.0473353 198.41333,44.662 C198.277329,44.2766647 198.022332,44.0160007 197.64833,43.88 C197.274328,43.7439993 196.679334,43.6533336 195.86333,43.608 L195.86333,42.928 C196.815335,42.9960003 198.197988,43.03 200.01133,43.03 L203.68333,42.996 C204.113999,42.9733332 204.601327,42.962 205.14533,42.962 C207.774676,42.962 209.797656,43.5116612 211.21433,44.611 C212.631004,45.7103388 213.33933,47.1326579 213.33933,48.878 C213.33933,49.7620044 213.129665,50.6516622 212.71033,51.547 C212.290995,52.4423378 211.588335,53.2469964 210.60233,53.961 C209.616325,54.6750036 208.330005,55.1566654 206.74333,55.406 L207.15133,55.474 C208.647337,55.7233346 209.735327,56.1766634 210.41533,56.834 C211.095333,57.4913366 211.593995,58.5339929 211.91133,59.962 L212.76133,63.43 C212.987998,64.4726719 213.225995,65.197998 213.47533,65.606 C213.724665,66.014002 214.064661,66.218 214.49533,66.218 C214.880665,66.218 215.203662,66.116001 215.46433,65.912 C215.724998,65.707999 216.025328,65.3793356 216.36533,64.926 L216.87533,65.3 Z M204.29533,43.608 C203.59266,43.608 203.065665,43.6873325 202.71433,43.846 C202.362995,44.0046675 202.119331,44.287998 201.98333,44.696 C201.847329,45.104002 201.77933,45.7159959 201.77933,46.532 L201.77933,54.896 L204.05733,54.896 C206.301341,54.896 207.842659,54.3973383 208.68133,53.4 C209.520001,52.4026617 209.93933,51.0200088 209.93933,49.252 C209.93933,47.393324 209.497334,45.9880048 208.61333,45.036 C207.729326,44.0839952 206.290007,43.608 204.29533,43.608 Z M228.831996,43.608 C228.015992,43.6533336 227.420998,43.7439993 227.046996,43.88 C226.672994,44.0160007 226.417997,44.2766647 226.281996,44.662 C226.145995,45.0473353 226.077996,45.6706624 226.077996,46.532 L226.077996,63.396 C226.077996,64.2573376 226.145995,64.8806647 226.281996,65.266 C226.417997,65.6513353 226.672994,65.9119993 227.046996,66.048 C227.420998,66.1840007 228.015992,66.2746664 228.831996,66.32 L228.831996,67 C227.789324,66.9319997 226.350005,66.898 224.513996,66.898 C222.564653,66.898 221.114001,66.9319997 220.161996,67 L220.161996,66.32 C220.978,66.2746664 221.572994,66.1840007 221.946996,66.048 C222.320998,65.9119993 222.575995,65.6513353 222.711996,65.266 C222.847997,64.8806647 222.915996,64.2573376 222.915996,63.396 L222.915996,46.532 C222.915996,45.6706624 222.847997,45.0473353 222.711996,44.662 C222.575995,44.2766647 222.320998,44.0160007 221.946996,43.88 C221.572994,43.7439993 220.978,43.6533336 220.161996,43.608 L220.161996,42.928 C221.114001,42.9960003 222.564653,43.03 224.513996,43.03 C226.327338,43.03 227.766657,42.9960003 228.831996,42.928 L228.831996,43.608 Z M251.804662,64.144 C252.348665,65.5493404 253.130657,66.2746664 254.150662,66.32 L254.150662,67 C253.243991,66.9319997 252.031336,66.898 250.512662,66.898 C248.563319,66.898 247.112667,66.9319997 246.160662,67 L246.160662,66.32 C247.022,66.2746664 247.63966,66.1670008 248.013662,65.997 C248.387664,65.8269992 248.574662,65.5153356 248.574662,65.062 C248.574662,64.6766647 248.438663,64.1440034 248.166662,63.464 L246.092662,57.888 L237.864662,57.888 L236.470662,61.492 C236.017326,62.7160061 235.790662,63.6453302 235.790662,64.28 C235.790662,64.9826702 236.034326,65.4926651 236.521662,65.81 C237.008998,66.1273349 237.751324,66.2973332 238.748662,66.32 L238.748662,67 C237.456656,66.9319997 236.153335,66.898 234.838662,66.898 C233.818657,66.898 232.968665,66.9319997 232.288662,67 L232.288662,66.32 C233.422001,66.0479986 234.317325,65.0620085 234.974662,63.362 L242.964662,42.758 L243.508662,42.758 L251.804662,64.144 Z M245.820662,57.208 L242.012662,47.042 L238.136662,57.208 L245.820662,57.208 Z" id="logo-victoria"></path>
                </g>
            </g>
        </g>
    </g>
</svg>