<?xml version="1.0" encoding="UTF-8"?>
<svg width="315px" height="24px" viewBox="0 0 315 24" version="1.1" xmlns="http://www.w3.org/2000/svg" xmlns:xlink="http://www.w3.org/1999/xlink">
    <!-- Generator: sketchtool 50.2 (55047) - http://www.bohemiancoding.com/sketch -->
    <title>6BD05C48-867C-4B4A-9CBA-E556D00AB41A@2x</title>
    <desc>Created with sketchtool.</desc>
    <defs>
        <polygon id="path-1" points="0.177777778 26 316 26 316 0.615384615 0.177777778 0.615384615"></polygon>
    </defs>
    <g id="homepage" stroke="none" stroke-width="1" fill="none" fill-rule="evenodd">
        <g id="homepage-1" transform="translate(-803.000000, -25.000000)">
            <g id="top-bar">
                <g id="Vaultskin" transform="translate(802.000000, 23.000000)">
                    <polygon id="Fill-1" fill="#FFFFFF" points="16.5685219 2.60000038 9.73021226 23.3287089 2.88704591 2.60000038 1.6000061 2.60000038 9.3562422 25.6769235 10.0993256 25.6769235 17.8555617 2.60000038"></polygon>
                    <path d="M94.1825189,2.61538462 L95.3888889,2.61538462 L95.3888889,19.056211 C95.1678012,20.8079757 94.4853129,22.2918234 93.3510368,23.5129064 C91.9956728,24.9606883 90.3519336,25.6923077 88.4294316,25.6923077 C86.4973171,25.6923077 84.8535779,24.9606883 83.4886014,23.5129064 C82.1332375,22.0445154 81.4555556,20.2927508 81.4555556,18.2318512 L81.4555556,2.61538462 L82.6619256,2.61538462 L82.6619256,18.2318512 C82.6619256,19.9269411 83.2242574,21.3798753 84.3537273,22.5855016 C85.478391,23.7962801 86.8385612,24.3990932 88.4294316,24.3990932 C90.020302,24.3990932 91.3756659,23.7962801 92.4955234,22.5855016 C93.620187,21.3798753 94.1825189,19.9269411 94.1825189,18.2318512 L94.1825189,2.61538462 Z" id="Fill-4" fill="#FFFFFF"></path>
                    <polygon id="Fill-8" fill="#FFFFFF" points="123.255556 25.6923077 123.255556 2.61538462 124.454893 2.61538462 124.454893 24.3880276 132.544444 24.3880276 132.544444 25.6923077"></polygon>
                    <polygon id="Fill-12" fill="#FFFFFF" points="162.1558 3.91937104 162.1558 25.6923077 161.002594 25.6923077 161.002594 3.91937104 155.766667 3.91937104 155.766667 2.61538462 167.377778 2.61538462 167.377778 3.91937104"></polygon>
                    <path d="M200.2943,12.9366019 C198.608644,12.4091293 197.269721,11.6737109 196.293534,10.7455621 C195.317347,9.82248521 194.831921,8.68639053 194.831921,7.35756551 C194.831921,6.0693153 195.317347,4.95350803 196.293534,4.01521555 C197.269721,3.08199493 198.459282,2.61538462 199.856883,2.61538462 C201.227812,2.61538462 202.406704,3.08199493 203.404228,4.01521555 C203.948332,4.51732883 204.316403,5.07016061 204.529777,5.68892646 L203.324213,6.13524937 C203.148179,5.6737109 202.849456,5.25274725 202.454713,4.87743026 C201.73991,4.19273035 200.87041,3.85291631 199.856883,3.85291631 C198.843355,3.85291631 197.963187,4.19273035 197.248384,4.87743026 C196.528246,5.56213018 196.170844,6.38377008 196.170844,7.35756551 C196.170844,8.33136095 196.522911,9.1580727 197.237715,9.85291631 C197.915178,10.476754 198.843355,11.0448014 200.027582,11.5621302 C201.926612,12.1555368 203.51625,13.0583263 204.817832,14.295858 C206.178093,15.5841082 206.855556,17.1513102 206.855556,18.9923922 C206.855556,20.8436179 206.178093,22.4209637 204.807164,23.7193576 C203.436234,25.032967 201.787919,25.6923077 199.856883,25.6923077 C197.915178,25.6923077 196.261528,25.0278952 194.895933,23.7092139 C193.786388,22.6644125 193.130262,21.4623838 192.922222,20.0777684 L194.175795,19.6415892 C194.309154,20.8689772 194.847924,21.9289941 195.818777,22.8317836 C196.933657,23.8968724 198.283248,24.4294167 199.856883,24.4294167 C201.430517,24.4294167 202.780109,23.8968724 203.894989,22.8317836 C205.009869,21.7717667 205.569976,20.4885883 205.569976,18.9923922 C205.569976,17.501268 205.009869,16.2282333 203.894989,15.1682164 C202.913468,14.2349958 201.713238,13.4894336 200.2943,12.9366019" id="Fill-16" fill="#FFFFFF"></path>
                    <polygon id="Fill-20" fill="#FFFFFF" points="242.450112 2.61538462 236.775391 11.2757247 246.333333 25.6923077 244.832215 25.6923077 235.987919 12.3563191 233.635347 15.9150071 233.635347 25.6923077 232.4 25.6923077 232.4 2.61538462 233.635347 2.61538462 233.635347 13.6603055 240.948993 2.61538462"></polygon>
                    <mask id="mask-2" fill="white">
                        <use xlink:href="#path-1"></use>
                    </mask>
                    <g id="Clip-25"></g>
                    <polygon id="Fill-24" fill="#FFFFFF" mask="url(#mask-2)" points="269.555556 25.6923077 270.721311 25.6923077 270.721311 2.61538462 269.555556 2.61538462"></polygon>
                    <polygon id="Fill-27" fill="#FFFFFF" mask="url(#mask-2)" points="299.09 2.61538462 314.675278 24.1077824 314.675278 2.61538462 316 2.61538462 316 25.6923077 313.962778 25.6923077 298.746944 4.69864579 298.746944 25.6923077 297.422222 25.6923077 297.422222 2.61538462"></polygon>
                    <polygon id="Fill-29" fill="#FFFFFF" mask="url(#mask-2)" points="49.6769397 2.61538462 48.3074921 2.61538462 39.6555556 25.6923077 41.0727746 25.6923077 48.9975238 4.56876667 56.8320381 25.6923077 58.2333333 25.6923077"></polygon>
                </g>
            </g>
        </g>
    </g>
</svg>